<svg xmlns="http://www.w3.org/2000/svg" viewBox="0 0 64 64">
  <defs>
    <linearGradient id="e-g" x1="10" y1="2" x2="54" y2="62" gradientUnits="userSpaceOnUse">
      <stop offset="0" stop-color="#6ee7b7"/>
      <stop offset="0.5" stop-color="#10b981"/>
      <stop offset="1" stop-color="#065f46"/>
    </linearGradient>
    <linearGradient id="e-a" x1="32" y1="15" x2="32" y2="52.5" gradientUnits="userSpaceOnUse">
      <stop offset="0" stop-color="#fef3c7"/>
      <stop offset="0.45" stop-color="#fbbf24"/>
      <stop offset="1" stop-color="#d97706"/>
    </linearGradient>
  </defs>
    <path d="M32 2 58 9v22c0 15-10.5 25-26 31C16.5 56 6 46 6 31V9Z" fill="#064e3b"/>
    <path d="M32 5.5 55 11.7V31c0 13.2-9.1 22-23 27.7C18.1 53 9 44.2 9 31V11.7Z" fill="url(#e-g)"/>
    <path d="M32 5.5 9 11.7V31c0 13.2 9.1 22 23 27.7Z" fill="#fff" fill-opacity=".12"/>
    <path d="M13 15h38l-3.6 8.5H37.2V45L32 52.5 26.8 45V23.5H16.6Z" fill="#022c22" fill-opacity=".45" transform="translate(0 2.2)"/>
    <path d="M13 15h38l-3.6 8.5H37.2V45L32 52.5 26.8 45V23.5H16.6Z" fill="url(#e-a)"/>
    <path d="M32 15h19l-3.6 8.5H37.2V45L32 52.5Z" fill="#78350f" fill-opacity=".22"/>
</svg>
