<svg xmlns="http://www.w3.org/2000/svg" viewBox="0 0 150 100" width="150" height="100"><defs><linearGradient id="gold" x1="0" y1="0" x2="0" y2="1"><stop offset="0" stop-color="#fef3c7"/><stop offset=".45" stop-color="#fbbf24"/><stop offset="1" stop-color="#b45309"/></linearGradient></defs><rect width="150" height="100" fill="#1e3a8a"/><rect x="4" y="4" width="142" height="92" fill="none" stroke="#facc15" stroke-width="3"/><g fill="url(#gold)" stroke="#78350f" stroke-width="2" stroke-linejoin="round"><path d="M75 14C62 30 62 46 75 60C88 46 88 30 75 14Z"/><path d="M71 60C60 44 40 36 30 48C24 56 32 66 40 60C36 56 38 50 44 50C54 50 62 58 66 64Z"/><path d="M79 60C90 44 110 36 120 48C126 56 118 66 110 60C114 56 112 50 106 50C96 50 88 58 84 64Z"/><rect x="56" y="60" width="38" height="8" rx="3"/><path d="M70 68L80 68L84 86L75 80L66 86Z"/></g></svg>
