<svg xmlns="http://www.w3.org/2000/svg" viewBox="0 0 150 100" width="150" height="100"><rect x="0" y="0" width="10" height="10" fill="#10b981"/><rect x="10" y="0" width="10" height="10" fill="#10b981"/><rect x="20" y="0" width="10" height="10" fill="#10b981"/><rect x="30" y="0" width="10" height="10" fill="#10b981"/><rect x="40" y="0" width="10" height="10" fill="#10b981"/><rect x="50" y="0" width="10" height="10" fill="#10b981"/><rect x="60" y="0" width="10" height="10" fill="#047857"/><rect x="70" y="0" width="10" height="10" fill="#1e40af"/><rect x="80" y="0" width="10" height="10" fill="#3b82f6"/><rect x="90" y="0" width="10" height="10" fill="#3b82f6"/><rect x="100" y="0" width="10" height="10" fill="#3b82f6"/><rect x="110" y="0" width="10" height="10" fill="#3b82f6"/><rect x="120" y="0" width="10" height="10" fill="#3b82f6"/><rect x="130" y="0" width="10" height="10" fill="#3b82f6"/><rect x="140" y="0" width="10" height="10" fill="#3b82f6"/><rect x="0" y="10" width="10" height="10" fill="#10b981"/><rect x="10" y="10" width="10" height="10" fill="#10b981"/><rect x="20" y="10" width="10" height="10" fill="#10b981"/><rect x="30" y="10" width="10" height="10" fill="#10b981"/><rect x="40" y="10" width="10" height="10" fill="#10b981"/><rect x="50" y="10" width="10" height="10" fill="#10b981"/><rect x="60" y="10" width="10" height="10" fill="#047857"/><rect x="70" y="10" width="10" height="10" fill="#1e40af"/><rect x="80" y="10" width="10" height="10" fill="#3b82f6"/><rect x="90" y="10" width="10" height="10" fill="#3b82f6"/><rect x="100" y="10" width="10" height="10" fill="#3b82f6"/><rect x="110" y="10" width="10" height="10" fill="#3b82f6"/><rect x="120" y="10" width="10" height="10" fill="#3b82f6"/><rect x="130" y="10" width="10" height="10" fill="#3b82f6"/><rect x="140" y="10" width="10" height="10" fill="#3b82f6"/><rect x="0" y="20" width="10" height="10" fill="#10b981"/><rect x="10" y="20" width="10" height="10" fill="#10b981"/><rect x="20" y="20" width="10" height="10" fill="#10b981"/><rect x="30" y="20" width="10" height="10" fill="#10b981"/><rect x="40" y="20" width="10" height="10" fill="#10b981"/><rect x="50" y="20" width="10" height="10" fill="#10b981"/><rect x="60" y="20" width="10" height="10" fill="#10b981"/><rect x="70" y="20" width="10" height="10" fill="#047857"/><rect x="80" y="20" width="10" height="10" fill="#1e40af"/><rect x="90" y="20" width="10" height="10" fill="#3b82f6"/><rect x="100" y="20" width="10" height="10" fill="#3b82f6"/><rect x="110" y="20" width="10" height="10" fill="#3b82f6"/><rect x="120" y="20" width="10" height="10" fill="#3b82f6"/><rect x="130" y="20" width="10" height="10" fill="#3b82f6"/><rect x="140" y="20" width="10" height="10" fill="#3b82f6"/><rect x="0" y="30" width="10" height="10" fill="#10b981"/><rect x="10" y="30" width="10" height="10" fill="#10b981"/><rect x="20" y="30" width="10" height="10" fill="#10b981"/><rect x="30" y="30" width="10" height="10" fill="#10b981"/><rect x="40" y="30" width="10" height="10" fill="#10b981"/><rect x="50" y="30" width="10" height="10" fill="#10b981"/><rect x="60" y="30" width="10" height="10" fill="#10b981"/><rect x="70" y="30" width="10" height="10" fill="#047857"/><rect x="80" y="30" width="10" height="10" fill="#1e40af"/><rect x="90" y="30" width="10" height="10" fill="#3b82f6"/><rect x="100" y="30" width="10" height="10" fill="#3b82f6"/><rect x="110" y="30" width="10" height="10" fill="#3b82f6"/><rect x="120" y="30" width="10" height="10" fill="#3b82f6"/><rect x="130" y="30" width="10" height="10" fill="#3b82f6"/><rect x="140" y="30" width="10" height="10" fill="#3b82f6"/><rect x="0" y="40" width="10" height="10" fill="#10b981"/><rect x="10" y="40" width="10" height="10" fill="#10b981"/><rect x="20" y="40" width="10" height="10" fill="#10b981"/><rect x="30" y="40" width="10" height="10" fill="#10b981"/><rect x="40" y="40" width="10" height="10" fill="#10b981"/><rect x="50" y="40" width="10" height="10" fill="#10b981"/><rect x="60" y="40" width="10" height="10" fill="#047857"/><rect x="70" y="40" width="10" height="10" fill="#047857"/><rect x="80" y="40" width="10" height="10" fill="#1e40af"/><rect x="90" y="40" width="10" height="10" fill="#1e40af"/><rect x="100" y="40" width="10" height="10" fill="#3b82f6"/><rect x="110" y="40" width="10" height="10" fill="#3b82f6"/><rect x="120" y="40" width="10" height="10" fill="#3b82f6"/><rect x="130" y="40" width="10" height="10" fill="#3b82f6"/><rect x="140" y="40" width="10" height="10" fill="#3b82f6"/><rect x="0" y="50" width="10" height="10" fill="#10b981"/><rect x="10" y="50" width="10" height="10" fill="#10b981"/><rect x="20" y="50" width="10" height="10" fill="#10b981"/><rect x="30" y="50" width="10" height="10" fill="#10b981"/><rect x="40" y="50" width="10" height="10" fill="#10b981"/><rect x="50" y="50" width="10" height="10" fill="#047857"/><rect x="60" y="50" width="10" height="10" fill="#991b1b"/><rect x="70" y="50" width="10" height="10" fill="#991b1b"/><rect x="80" y="50" width="10" height="10" fill="#991b1b"/><rect x="90" y="50" width="10" height="10" fill="#991b1b"/><rect x="100" y="50" width="10" height="10" fill="#1e40af"/><rect x="110" y="50" width="10" height="10" fill="#1e40af"/><rect x="120" y="50" width="10" height="10" fill="#1e40af"/><rect x="130" y="50" width="10" height="10" fill="#3b82f6"/><rect x="140" y="50" width="10" height="10" fill="#3b82f6"/><rect x="0" y="60" width="10" height="10" fill="#10b981"/><rect x="10" y="60" width="10" height="10" fill="#10b981"/><rect x="20" y="60" width="10" height="10" fill="#10b981"/><rect x="30" y="60" width="10" height="10" fill="#047857"/><rect x="40" y="60" width="10" height="10" fill="#047857"/><rect x="50" y="60" width="10" height="10" fill="#991b1b"/><rect x="60" y="60" width="10" height="10" fill="#ef4444"/><rect x="70" y="60" width="10" height="10" fill="#ef4444"/><rect x="80" y="60" width="10" height="10" fill="#ef4444"/><rect x="90" y="60" width="10" height="10" fill="#ef4444"/><rect x="100" y="60" width="10" height="10" fill="#991b1b"/><rect x="110" y="60" width="10" height="10" fill="#991b1b"/><rect x="120" y="60" width="10" height="10" fill="#991b1b"/><rect x="130" y="60" width="10" height="10" fill="#1e40af"/><rect x="140" y="60" width="10" height="10" fill="#1e40af"/><rect x="0" y="70" width="10" height="10" fill="#047857"/><rect x="10" y="70" width="10" height="10" fill="#047857"/><rect x="20" y="70" width="10" height="10" fill="#047857"/><rect x="30" y="70" width="10" height="10" fill="#991b1b"/><rect x="40" y="70" width="10" height="10" fill="#991b1b"/><rect x="50" y="70" width="10" height="10" fill="#ef4444"/><rect x="60" y="70" width="10" height="10" fill="#ef4444"/><rect x="70" y="70" width="10" height="10" fill="#ef4444"/><rect x="80" y="70" width="10" height="10" fill="#ef4444"/><rect x="90" y="70" width="10" height="10" fill="#ef4444"/><rect x="100" y="70" width="10" height="10" fill="#ef4444"/><rect x="110" y="70" width="10" height="10" fill="#ef4444"/><rect x="120" y="70" width="10" height="10" fill="#ef4444"/><rect x="130" y="70" width="10" height="10" fill="#991b1b"/><rect x="140" y="70" width="10" height="10" fill="#991b1b"/><rect x="0" y="80" width="10" height="10" fill="#0c4a6e"/><rect x="10" y="80" width="10" height="10" fill="#0c4a6e"/><rect x="20" y="80" width="10" height="10" fill="#0c4a6e"/><rect x="30" y="80" width="10" height="10" fill="#991b1b"/><rect x="40" y="80" width="10" height="10" fill="#ef4444"/><rect x="50" y="80" width="10" height="10" fill="#ef4444"/><rect x="60" y="80" width="10" height="10" fill="#ef4444"/><rect x="70" y="80" width="10" height="10" fill="#ef4444"/><rect x="80" y="80" width="10" height="10" fill="#ef4444"/><rect x="90" y="80" width="10" height="10" fill="#ef4444"/><rect x="100" y="80" width="10" height="10" fill="#ef4444"/><rect x="110" y="80" width="10" height="10" fill="#ef4444"/><rect x="120" y="80" width="10" height="10" fill="#ef4444"/><rect x="130" y="80" width="10" height="10" fill="#ef4444"/><rect x="140" y="80" width="10" height="10" fill="#ef4444"/><rect x="0" y="90" width="10" height="10" fill="#0c4a6e"/><rect x="10" y="90" width="10" height="10" fill="#0c4a6e"/><rect x="20" y="90" width="10" height="10" fill="#0c4a6e"/><rect x="30" y="90" width="10" height="10" fill="#991b1b"/><rect x="40" y="90" width="10" height="10" fill="#ef4444"/><rect x="50" y="90" width="10" height="10" fill="#ef4444"/><rect x="60" y="90" width="10" height="10" fill="#ef4444"/><rect x="70" y="90" width="10" height="10" fill="#ef4444"/><rect x="80" y="90" width="10" height="10" fill="#ef4444"/><rect x="90" y="90" width="10" height="10" fill="#ef4444"/><rect x="100" y="90" width="10" height="10" fill="#ef4444"/><rect x="110" y="90" width="10" height="10" fill="#ef4444"/><rect x="120" y="90" width="10" height="10" fill="#ef4444"/><rect x="130" y="90" width="10" height="10" fill="#ef4444"/><rect x="140" y="90" width="10" height="10" fill="#ef4444"/><rect x="21" y="21" width="8" height="8" rx="2" fill="#fbbf24"/><rect x="121" y="11" width="8" height="8" rx="2" fill="#fbbf24"/><rect x="81" y="81" width="8" height="8" rx="2" fill="#fbbf24"/></svg>
