<svg xmlns="http://www.w3.org/2000/svg" viewBox="0 0 64 64"><defs><linearGradient id="e-g" x1="8" y1="6" x2="44" y2="60" gradientUnits="userSpaceOnUse"><stop offset="0" stop-color="#a7f3d0"/><stop offset=".35" stop-color="#34d399"/><stop offset=".7" stop-color="#10b981"/><stop offset="1" stop-color="#047857"/></linearGradient><linearGradient id="e-a" x1="0" y1="0" x2="0" y2="1"><stop offset="0" stop-color="#fef3c7"/><stop offset=".5" stop-color="#fbbf24"/><stop offset="1" stop-color="#d97706"/></linearGradient><radialGradient id="e-bg" cx=".5" cy=".3" r=".8"><stop offset="0" stop-color="#12302a"/><stop offset="1" stop-color="#070d0f"/></radialGradient></defs><rect x="1" y="1" width="62" height="62" rx="14" fill="url(#e-bg)"/><rect x="1.5" y="1.5" width="61" height="61" rx="13.5" fill="none" stroke="#34d399" stroke-opacity=".35"/><rect x="9" y="9" width="5.37" height="5.37" rx="1.2" fill="url(#e-g)"/><rect x="9" y="9" width="5.37" height="1.18" rx="1.2" fill="#fff" fill-opacity="0.22"/><rect x="15.77" y="9" width="5.37" height="5.37" rx="1.2" fill="url(#e-g)"/><rect x="15.77" y="9" width="5.37" height="1.18" rx="1.2" fill="#fff" fill-opacity="0.22"/><rect x="22.54" y="9" width="5.37" height="5.37" rx="1.2" fill="url(#e-g)"/><rect x="22.54" y="9" width="5.37" height="1.18" rx="1.2" fill="#fff" fill-opacity="0.22"/><rect x="29.31" y="9" width="5.37" height="5.37" rx="1.2" fill="url(#e-g)"/><rect x="29.31" y="9" width="5.37" height="1.18" rx="1.2" fill="#fff" fill-opacity="0.22"/><rect x="36.09" y="9" width="5.37" height="5.37" rx="1.2" fill="url(#e-g)"/><rect x="36.09" y="9" width="5.37" height="1.18" rx="1.2" fill="#fff" fill-opacity="0.22"/><rect x="42.86" y="9" width="5.37" height="5.37" rx="1.2" fill="url(#e-g)"/><rect x="42.86" y="9" width="5.37" height="1.18" rx="1.2" fill="#fff" fill-opacity="0.22"/><rect x="49.63" y="9" width="5.37" height="5.37" rx="1.2" fill="url(#e-g)"/><rect x="49.63" y="9" width="5.37" height="1.18" rx="1.2" fill="#fff" fill-opacity="0.22"/><rect x="9" y="15.77" width="5.37" height="5.37" rx="1.2" fill="url(#e-g)"/><rect x="9" y="15.77" width="5.37" height="1.18" rx="1.2" fill="#fff" fill-opacity="0.22"/><rect x="15.77" y="15.77" width="5.37" height="5.37" rx="1.2" fill="url(#e-g)"/><rect x="15.77" y="15.77" width="5.37" height="1.18" rx="1.2" fill="#fff" fill-opacity="0.22"/><rect x="22.54" y="15.77" width="5.37" height="5.37" rx="1.2" fill="url(#e-g)"/><rect x="22.54" y="15.77" width="5.37" height="1.18" rx="1.2" fill="#fff" fill-opacity="0.22"/><rect x="29.31" y="15.77" width="5.37" height="5.37" rx="1.2" fill="url(#e-a)"/><rect x="29.31" y="15.77" width="5.37" height="1.18" rx="1.2" fill="#fff" fill-opacity="0.5"/><rect x="36.09" y="15.77" width="5.37" height="5.37" rx="1.2" fill="url(#e-g)"/><rect x="36.09" y="15.77" width="5.37" height="1.18" rx="1.2" fill="#fff" fill-opacity="0.22"/><rect x="42.86" y="15.77" width="5.37" height="5.37" rx="1.2" fill="url(#e-g)"/><rect x="42.86" y="15.77" width="5.37" height="1.18" rx="1.2" fill="#fff" fill-opacity="0.22"/><rect x="49.63" y="15.77" width="5.37" height="5.37" rx="1.2" fill="url(#e-g)"/><rect x="49.63" y="15.77" width="5.37" height="1.18" rx="1.2" fill="#fff" fill-opacity="0.22"/><rect x="22.54" y="22.54" width="5.37" height="5.37" rx="1.2" fill="url(#e-g)"/><rect x="22.54" y="22.54" width="5.37" height="1.18" rx="1.2" fill="#fff" fill-opacity="0.22"/><rect x="29.31" y="22.54" width="5.37" height="5.37" rx="1.2" fill="url(#e-g)"/><rect x="29.31" y="22.54" width="5.37" height="1.18" rx="1.2" fill="#fff" fill-opacity="0.22"/><rect x="36.09" y="22.54" width="5.37" height="5.37" rx="1.2" fill="url(#e-g)"/><rect x="36.09" y="22.54" width="5.37" height="1.18" rx="1.2" fill="#fff" fill-opacity="0.22"/><rect x="22.54" y="29.31" width="5.37" height="5.37" rx="1.2" fill="url(#e-g)"/><rect x="22.54" y="29.31" width="5.37" height="1.18" rx="1.2" fill="#fff" fill-opacity="0.22"/><rect x="29.31" y="29.31" width="5.37" height="5.37" rx="1.2" fill="url(#e-g)"/><rect x="29.31" y="29.31" width="5.37" height="1.18" rx="1.2" fill="#fff" fill-opacity="0.22"/><rect x="36.09" y="29.31" width="5.37" height="5.37" rx="1.2" fill="url(#e-g)"/><rect x="36.09" y="29.31" width="5.37" height="1.18" rx="1.2" fill="#fff" fill-opacity="0.22"/><rect x="22.54" y="36.09" width="5.37" height="5.37" rx="1.2" fill="url(#e-g)"/><rect x="22.54" y="36.09" width="5.37" height="1.18" rx="1.2" fill="#fff" fill-opacity="0.22"/><rect x="29.31" y="36.09" width="5.37" height="5.37" rx="1.2" fill="url(#e-g)"/><rect x="29.31" y="36.09" width="5.37" height="1.18" rx="1.2" fill="#fff" fill-opacity="0.22"/><rect x="36.09" y="36.09" width="5.37" height="5.37" rx="1.2" fill="url(#e-g)"/><rect x="36.09" y="36.09" width="5.37" height="1.18" rx="1.2" fill="#fff" fill-opacity="0.22"/><rect x="9" y="42.86" width="5.37" height="5.37" rx="1.2" fill="#f43f5e" fill-opacity="0.85"/><rect x="22.54" y="42.86" width="5.37" height="5.37" rx="1.2" fill="url(#e-g)"/><rect x="22.54" y="42.86" width="5.37" height="1.18" rx="1.2" fill="#fff" fill-opacity="0.22"/><rect x="29.31" y="42.86" width="5.37" height="5.37" rx="1.2" fill="url(#e-g)"/><rect x="29.31" y="42.86" width="5.37" height="1.18" rx="1.2" fill="#fff" fill-opacity="0.22"/><rect x="36.09" y="42.86" width="5.37" height="5.37" rx="1.2" fill="url(#e-g)"/><rect x="36.09" y="42.86" width="5.37" height="1.18" rx="1.2" fill="#fff" fill-opacity="0.22"/><rect x="50.230000000000004" y="43.46" width="4.17" height="4.17" rx="1.2" fill="#34d399" fill-opacity="0.18" stroke="#34d399" stroke-opacity="0.9" stroke-width="1.1"/><rect x="9" y="49.63" width="5.37" height="5.37" rx="1.2" fill="#f43f5e" fill-opacity="0.85"/><rect x="15.77" y="49.63" width="5.37" height="5.37" rx="1.2" fill="#f43f5e" fill-opacity="0.85"/><rect x="29.31" y="49.63" width="5.37" height="5.37" rx="1.2" fill="url(#e-g)"/><rect x="29.31" y="49.63" width="5.37" height="1.18" rx="1.2" fill="#fff" fill-opacity="0.22"/><rect x="43.46" y="50.230000000000004" width="4.17" height="4.17" rx="1.2" fill="#34d399" fill-opacity="0.18" stroke="#34d399" stroke-opacity="0.9" stroke-width="1.1"/><rect x="49.63" y="49.63" width="5.37" height="5.37" rx="1.2" fill="#f43f5e" fill-opacity="0.4"/></svg>
